<!--?xml version="1.0" standalone="no"?-->
              <svg id="sw-js-blob-svg" viewBox="0 0 100 100" xmlns="http://www.w3.org/2000/svg" version="1.1">
                    <defs> 
                        <linearGradient id="sw-gradient" x1="0" x2="1" y1="1" y2="0">
                            <stop id="stop1" stop-color="rgba(255, 255, 255, 1)" offset="0%"></stop>
                            <stop id="stop2" stop-color="rgba(190.032, 197.036, 212.951, 1)" offset="100%"></stop>
                        </linearGradient>
                    </defs>
                <path fill="url(#sw-gradient)" d="M19.9,-34.8C26.2,-30.8,31.9,-26.3,34.7,-20.4C37.6,-14.5,37.4,-7.2,36.7,-0.4C36,6.4,34.6,12.8,31.8,18.7C29,24.7,24.8,30.2,19.3,32.6C13.7,35,6.9,34.3,-0.2,34.6C-7.3,35,-14.5,36.3,-20.6,34.2C-26.7,32.2,-31.6,26.6,-36.1,20.3C-40.7,14.1,-44.8,7,-45.5,-0.4C-46.3,-7.9,-43.6,-15.7,-38.9,-21.7C-34.2,-27.7,-27.5,-31.9,-20.7,-35.6C-13.9,-39.2,-6.9,-42.5,-0.1,-42.4C6.8,-42.3,13.6,-38.8,19.9,-34.8Z" width="100%" height="100%" transform="translate(50 50)" stroke-width="0" style="transition: all 0.3s ease 0s;" stroke="url(#sw-gradient)"></path>
              </svg>